    <svg
      viewBox="0 0 1000 800"
      fill="none"
      xmlns="http://www.w3.org/2000/svg"
      class="asean-map-bg"
      aria-hidden="true"
      preserveAspectRatio="xMidYMid meet"
    >
      <!-- Myanmar -->
      <path d="M179 169L177 168L174 167L172 169L169 169L167 169L166 171L166 173L163 174L161 173L159 173L157 175L157 178L155 180L153 180L147 181L145 182L143 182L139 180L137 182L136 184L134 186L133 190L133 193L132 195L132 203L129 204L127 205L125 205L126 208L128 209L130 209L130 211L132 214L132 216L131 218L133 221L136 224L138 227L141 229L142 231L146 235L147 239L148 241L148 243L150 247L154 246L155 248L153 250L149 253L149 255L148 258L148 262L148 265L146 266L144 268L142 268L141 270L141 274L142 277L144 279L145 281L147 283L148 286L151 288L156 292L157 294L159 296L160 298L160 301L160 303L160 308L159 310L159 312L160 315L161 317L163 319L165 321L165 324L165 326L166 328L167 330L169 336L168 338L166 339L164 344L161 349L157 353L155 355L153 357L152 359L152 362L152 364L151 366L148 370L147 367L148 364L146 358L148 356L149 354L150 351L151 349L152 347L152 345L152 343L152 341L153 338L153 336L151 337L150 334L151 331L150 329L151 327L149 327L151 325L150 323L150 321L150 319L150 317L150 315L149 312L149 309L147 306L145 303L142 298L142 296L142 294L140 300L139 298L139 295L139 293L139 290L137 286L137 284L135 280L138 280L136 278L134 276L133 270L132 267L133 265L132 256L129 253L130 251L130 249L130 245L132 243L130 243L128 243L125 243L124 241L123 239L122 236L121 233L120 231L117 228L115 226L116 228L115 230L116 234L115 236L114 238L113 240L110 243L108 244L105 244L104 242L103 239L103 241L103 243L104 245L101 247L99 247L98 249L93 250L92 252L92 254L89 257L86 259L84 258L84 256L86 254L85 252L83 256L80 257L77 257L76 254L76 252L76 250L76 252L74 254L72 256L72 254L72 252L72 249L73 246L73 244L72 247L70 248L69 250L67 252L65 253L63 253L63 251L64 244L65 242L67 237L68 235L68 232L70 228L70 223L70 221L69 218L67 211L64 205L64 203L62 200L64 200L61 198L60 192L60 190L59 192L58 195L57 197L55 196L53 195L51 191L49 188L51 187L54 190L57 190L59 187L57 185L54 183L52 181L52 178L48 175L46 174L44 174L42 175L43 178L39 174L41 172L41 168L39 170L37 173L35 171L37 170L36 168L35 166L34 170L32 166L27 162L26 160L25 157L25 155L23 152L23 150L25 148L27 148L29 149L31 151L32 149L31 147L31 144L31 138L32 136L33 134L35 135L37 137L39 136L40 134L42 133L42 131L41 126L41 124L41 121L42 119L42 117L44 117L46 115L47 110L47 107L47 104L47 102L45 97L48 98L50 98L52 97L54 98L56 99L59 99L61 100L62 98L63 95L65 91L66 88L68 85L70 83L72 79L73 77L72 75L70 74L70 72L71 70L74 68L76 66L77 64L79 60L81 58L80 55L79 52L80 49L81 47L84 45L88 44L93 40L95 39L97 37L99 35L102 34L111 32L114 33L115 36L117 36L120 37L116 30L115 28L116 26L119 24L121 23L124 21L124 19L124 16L126 13L127 11L129 9L131 10L132 12L134 13L136 13L138 15L139 17L140 20L142 26L143 28L145 28L146 26L149 27L150 31L151 34L151 38L152 41L152 43L152 45L152 47L151 50L150 53L151 55L148 56L149 58L150 60L150 62L148 62L146 63L145 65L144 67L141 66L139 70L137 72L134 73L133 75L132 77L132 79L132 81L129 82L128 85L128 88L130 89L131 91L132 93L131 95L129 98L130 100L132 99L134 98L138 96L141 95L144 95L147 95L149 96L152 95L154 95L151 98L151 101L153 103L154 105L153 107L155 110L154 113L158 115L161 115L164 115L166 116L167 118L164 120L163 123L164 125L163 127L162 129L161 131L160 133L163 135L168 135L173 136L175 136L175 138L175 140L176 142L178 143L178 145L179 147L181 147L183 146L185 147L187 147L190 146L193 143L196 142L198 141L199 145L198 147L195 149L193 150L191 150L189 154L187 156L187 158L189 158L186 160L184 160L181 161L180 164L179 168L179 169Z M141 352L143 356L142 354L140 353L141 352Z M141 372L142 370L142 372L141 372Z M142 342L141 340L143 336L143 340L142 342Z M147 334L146 331L148 332L147 334Z M148 337L148 341L146 340L145 338L145 336L148 336L148 337Z M145 320L146 322L145 325L143 325L144 322L143 320L143 318L145 319L145 320Z M68 255L67 257L66 254L69 252L71 250L70 253L68 255Z M129 249L127 248L127 245L129 244L129 246L129 249Z M53 201L50 200L49 198L51 197L54 198L53 201L53 201Z M53 184L55 186L58 187L57 189L55 189L54 187L52 186L53 184L53 184Z M143 310L143 313L142 310L142 308L143 310Z M39 177L40 179L37 176L38 174L39 177Z" fill="currentColor" opacity="0.55" />

      <!-- Cambodia -->
      <path d="M324 279L323 282L323 284L321 285L321 287L320 290L321 292L323 296L324 299L325 302L326 304L324 308L323 312L324 315L324 318L325 321L324 323L324 325L322 326L320 325L318 326L315 328L312 330L309 331L306 332L304 332L302 333L302 337L299 337L296 337L294 336L293 338L291 339L291 342L291 344L292 346L296 350L297 353L297 355L294 354L292 354L290 353L289 351L286 352L283 352L281 354L278 353L275 353L275 355L275 357L273 359L271 361L268 361L266 361L264 363L260 360L254 359L252 358L248 361L246 359L247 357L249 356L249 353L248 350L246 348L244 350L243 352L241 353L238 353L237 350L237 347L237 344L238 342L235 340L235 337L230 330L230 327L230 324L229 322L225 319L225 316L225 312L223 308L222 302L224 301L226 301L226 299L228 298L230 296L232 293L234 290L236 288L239 286L241 286L244 285L246 285L250 285L253 286L255 286L259 285L263 285L266 285L270 284L272 285L274 286L275 288L277 287L279 288L280 290L282 291L285 290L289 291L291 293L295 294L297 292L296 290L294 288L294 286L297 285L299 283L301 284L303 283L304 281L305 283L307 284L309 285L310 287L312 286L314 285L316 285L318 283L319 281L321 282L323 280L324 279Z" fill="currentColor" opacity="0.55" />

      <!-- Indonesia -->
      <path d="M127 537L131 543L135 546L135 549L135 554L131 554L129 550L127 547L123 543L119 538L122 538L125 536L127 537Z M160 601L154 598L150 590L150 585L154 584L158 590L159 593L161 596L162 600L160 601Z M503 734L500 738L496 740L491 739L488 738L491 737L492 734L491 730L494 728L498 726L503 727L505 730L503 734Z M479 725L484 729L482 732L477 734L475 737L472 738L473 734L470 732L465 730L462 729L460 726L463 724L467 726L471 725L474 723L477 724L479 725Z M295 598L297 601L298 609L301 614L310 616L307 619L306 622L307 626L304 625L301 623L297 622L294 621L292 617L292 614L290 611L290 608L286 607L281 607L277 606L278 603L281 602L282 599L286 596L288 599L289 596L292 595L295 597L295 598Z M631 655L631 659L628 660L627 663L627 666L630 668L630 671L627 671L626 674L624 677L621 676L619 673L621 670L623 667L623 664L624 660L625 656L626 653L629 651L631 655Z M620 669L617 671L614 671L614 666L615 663L614 660L618 658L621 656L623 662L620 666L620 669Z M340 494L337 495L337 492L334 490L333 487L337 484L341 488L341 491L340 494Z M337 624L337 627L334 629L331 626L327 628L325 624L325 620L327 616L330 615L335 617L338 618L339 621L337 624Z M870 579L874 579L877 580L880 580L884 583L888 587L886 590L882 589L879 588L877 582L873 581L870 580L870 579Z M872 597L880 598L886 598L890 599L896 600L900 601L896 602L891 603L887 603L883 601L880 600L872 598L872 597Z M781 566L784 567L790 569L791 572L788 573L784 573L781 570L778 567L780 572L779 575L778 572L775 573L771 571L770 568L773 568L776 567L779 566L781 566Z M734 526L731 526L730 521L732 518L735 516L739 518L738 522L736 525L734 526Z M728 598L724 599L720 599L717 600L714 598L715 594L719 592L724 594L728 597L728 598Z M687 601L693 601L685 603L676 604L675 601L681 601L687 601Z M666 599L669 600L672 600L669 603L663 603L660 604L657 605L654 602L654 599L657 598L660 598L666 599Z M791 722L788 722L786 719L787 716L789 712L792 709L795 707L798 705L797 708L798 711L797 715L794 717L791 721L791 722Z M702 715L698 718L696 721L692 720L688 720L685 720L682 722L683 718L686 715L690 716L693 716L698 714L701 715L702 715Z M658 725L662 725L665 725L668 725L669 728L656 731L655 728L657 725L658 725Z M784 592L781 592L779 589L779 586L782 583L785 584L785 589L784 592Z M108 464L115 463L119 464L126 464L129 465L132 468L135 471L137 475L142 480L142 484L148 488L151 490L153 493L160 496L167 501L171 504L175 508L177 511L179 514L182 518L185 522L188 524L192 527L192 524L194 521L197 522L200 525L203 529L204 532L207 533L210 533L216 538L219 541L220 544L220 547L223 549L227 551L232 552L236 555L235 558L231 560L226 562L231 561L235 559L241 556L245 556L248 560L251 565L247 567L244 570L243 573L244 576L246 581L249 583L254 585L259 586L262 586L263 590L264 597L265 601L268 605L271 607L270 610L268 613L268 616L272 613L275 612L280 612L284 613L292 622L295 626L295 629L292 632L291 636L291 639L293 642L291 646L292 655L292 659L292 664L291 677L288 679L285 677L281 674L277 678L273 677L267 674L268 679L264 679L260 674L256 671L252 665L243 660L240 657L234 653L226 647L223 643L219 638L212 632L209 629L204 622L202 619L198 616L195 612L193 608L193 604L186 591L184 587L183 582L178 577L175 574L171 566L163 562L160 559L158 552L156 546L153 537L151 533L149 529L139 523L136 522L133 521L131 517L130 514L129 510L125 508L123 504L117 496L114 493L108 492L104 488L98 483L90 475L87 471L83 463L83 460L83 457L86 456L89 456L93 457L99 461L103 463L108 464Z M623 734L620 735L617 736L614 736L610 736L605 739L601 739L598 738L595 740L592 739L589 740L584 739L579 738L575 738L571 737L567 739L565 736L565 733L566 730L571 729L576 727L579 727L583 728L586 728L591 730L594 731L597 733L600 732L603 732L606 731L609 732L613 734L616 734L618 731L623 729L626 726L623 726L626 724L628 728L624 731L624 734L623 734Z M569 749L573 751L574 754L577 754L580 755L582 759L585 762L582 765L577 767L574 766L571 765L569 762L565 759L561 757L558 756L551 755L548 752L553 749L557 749L561 748L565 749L568 748L569 749Z M534 728L538 728L541 727L543 730L546 728L549 729L550 733L551 736L548 736L544 736L539 739L537 736L534 738L531 739L527 740L524 740L520 742L517 742L514 742L511 743L507 742L505 739L506 735L507 732L511 731L514 729L517 730L521 730L523 733L526 736L529 736L533 735L533 732L530 731L526 729L524 726L527 724L532 724L533 727L534 728Z M665 546L661 550L659 553L655 557L651 558L642 560L638 560L634 560L631 558L627 556L613 556L609 557L605 557L602 557L598 556L588 557L582 556L578 556L575 557L572 561L570 565L569 568L569 572L570 577L573 583L577 585L581 590L582 593L587 593L591 592L594 588L597 584L600 582L603 584L607 584L610 583L613 581L618 581L621 581L625 581L625 578L628 578L631 577L635 579L635 585L632 585L628 583L625 584L622 587L618 592L614 595L611 597L605 599L602 602L599 603L596 602L598 606L602 609L605 611L607 615L608 618L614 623L615 627L614 630L613 635L614 638L618 641L620 644L623 646L625 651L622 651L617 652L612 654L609 656L609 659L606 660L603 660L600 659L598 655L599 649L600 646L596 644L587 635L586 632L589 628L590 625L590 622L588 618L584 617L581 618L575 622L574 625L576 629L577 638L576 641L576 646L576 652L577 656L575 663L574 666L576 671L577 675L574 674L570 675L567 675L564 677L560 675L556 672L557 667L559 661L559 658L561 654L561 645L559 639L559 636L556 633L549 635L546 632L545 627L546 623L545 620L547 617L551 614L552 610L554 605L556 601L555 598L555 595L556 590L559 584L562 580L566 583L565 579L564 575L563 568L566 565L565 562L567 557L570 552L573 549L576 549L579 550L582 547L584 543L587 541L590 540L594 541L597 542L599 545L605 545L610 546L616 546L619 547L623 549L627 548L633 548L644 550L652 546L655 543L658 542L659 539L662 538L664 535L669 533L671 537L667 543L665 546Z M321 683L325 686L329 687L334 688L337 689L340 688L343 692L345 697L349 699L353 699L359 700L363 699L369 701L374 700L378 701L381 701L384 699L385 696L386 693L389 691L392 691L395 696L399 697L402 696L405 697L412 699L418 700L422 701L424 706L427 708L427 711L432 715L436 716L441 717L446 716L449 716L452 715L458 717L460 720L459 727L459 730L460 733L463 735L460 736L456 734L450 733L445 731L436 728L432 728L429 729L425 730L419 729L414 728L402 728L399 727L393 727L389 726L384 725L373 720L370 719L358 716L353 716L350 715L345 716L342 718L338 718L332 717L327 715L324 713L319 712L315 711L306 711L303 710L302 707L304 704L298 701L293 700L289 699L286 700L283 699L280 699L281 696L284 698L286 695L287 692L290 692L292 685L295 682L301 683L305 683L310 685L314 683L317 682L320 683L321 683Z M365 526L364 529L366 534L369 538L372 541L375 543L379 546L382 549L385 549L391 546L394 545L398 545L402 546L406 546L410 544L413 544L415 540L417 537L421 535L430 535L432 538L438 540L441 540L444 542L448 539L451 537L456 537L459 537L462 537L463 534L464 530L467 529L467 526L466 523L470 520L474 517L472 514L472 511L474 508L477 507L480 507L480 504L481 501L482 498L481 495L482 489L483 486L486 483L491 482L495 481L498 482L501 481L504 481L507 481L512 481L515 482L519 484L521 488L524 492L524 495L521 494L515 495L511 495L517 499L516 503L520 505L522 508L522 511L525 512L527 516L530 519L531 522L527 525L528 529L531 533L539 538L542 540L546 544L549 547L544 549L540 550L535 549L531 548L528 544L529 547L528 550L525 551L521 559L519 570L521 577L521 580L517 583L513 586L510 589L507 590L505 586L505 589L505 592L502 594L500 597L497 599L499 602L498 606L498 609L501 609L501 613L498 615L498 619L497 622L493 623L495 627L491 631L490 635L476 642L465 647L463 638L462 634L459 634L458 629L454 631L450 632L447 633L444 633L444 629L439 629L432 623L431 628L427 631L424 632L420 632L417 631L414 632L411 635L408 635L409 630L408 625L406 622L402 624L399 623L393 625L390 625L387 624L384 622L380 623L377 623L377 618L375 609L374 605L372 602L373 598L373 593L371 589L368 586L362 583L359 582L359 579L356 575L355 571L357 566L356 563L352 559L351 555L351 550L352 544L355 542L354 538L356 535L359 530L365 526Z M720 549L723 550L725 546L728 544L729 540L734 536L739 535L740 539L739 544L736 547L732 548L731 552L737 555L739 559L742 561L736 559L732 558L728 557L725 557L723 560L724 563L725 571L727 575L730 580L734 583L731 583L726 580L723 574L720 572L719 569L719 565L720 560L717 556L716 553L718 550L714 544L714 541L716 537L717 534L718 530L720 527L724 524L724 528L724 531L726 535L726 540L723 543L719 546L719 549L720 549Z M760 622L764 624L767 624L771 624L776 627L777 630L780 633L782 636L781 641L776 639L772 637L765 634L762 631L757 631L754 633L749 632L744 631L741 630L738 633L735 633L731 629L728 627L726 630L725 633L723 630L728 623L737 621L741 622L745 621L749 623L752 621L755 620L760 622Z M703 626L706 628L709 631L711 634L710 637L705 639L702 640L697 639L694 638L690 636L687 633L687 628L691 627L697 626L702 626L703 626Z M665 740L666 743L669 742L669 745L666 745L667 748L668 751L666 754L661 759L657 763L653 764L650 765L647 767L644 768L640 767L640 764L639 761L640 758L641 755L645 750L648 748L653 750L656 746L660 744L665 741L665 740Z M858 677L858 681L858 684L858 687L856 690L852 689L849 687L846 684L849 683L850 680L847 677L850 677L852 674L855 672L856 675L858 677Z M854 692L851 696L850 699L847 701L844 698L845 692L845 688L848 687L851 690L854 692Z M932 727L927 730L921 729L915 730L915 727L918 721L922 715L925 712L932 710L937 710L940 714L939 720L937 723L934 726L932 727Z M980 617L980 621L980 625L980 628L980 632L980 636L980 640L980 644L980 648L980 652L980 656L980 660L980 664L980 668L980 672L980 676L980 680L980 684L980 688L979 692L978 695L979 699L980 704L980 708L980 712L980 716L980 720L980 724L980 728L980 732L980 736L980 740L980 744L976 741L974 738L970 734L963 728L960 725L963 720L960 724L957 724L954 724L951 725L947 725L946 722L943 725L940 727L939 724L940 720L942 716L942 713L939 710L936 707L939 706L942 707L945 706L942 706L938 705L933 701L939 700L936 697L934 694L930 690L929 685L927 682L925 679L928 677L925 677L923 674L920 671L917 668L908 664L905 662L901 662L895 660L890 658L886 657L882 654L877 653L872 653L868 653L858 648L856 645L861 643L858 642L855 643L852 643L848 643L847 640L844 640L841 638L838 636L837 630L839 627L836 628L836 631L834 634L832 639L831 642L828 645L825 645L822 645L819 641L819 638L821 635L820 632L815 627L811 624L806 623L803 620L808 618L815 619L818 620L822 618L824 614L827 613L832 615L835 616L838 614L841 613L840 609L837 609L833 609L828 609L823 610L816 610L812 610L808 608L805 606L803 599L803 596L799 596L790 593L787 594L784 594L785 591L788 589L789 585L790 582L793 581L800 580L803 577L806 575L812 573L816 573L821 574L825 576L829 578L833 580L838 580L843 580L845 583L845 587L848 591L848 595L845 599L846 602L846 606L846 609L850 617L852 621L853 616L856 616L856 619L857 623L860 623L860 626L861 629L864 631L868 632L872 631L875 628L880 624L882 620L887 616L888 613L890 610L894 609L899 609L903 607L905 604L905 601L909 599L914 596L918 595L922 596L934 601L937 603L940 604L944 606L951 609L957 612L964 612L967 613L973 614L975 617L980 617Z M210 525L211 528L210 531L206 532L204 529L204 526L207 526L210 525Z M224 547L221 545L220 541L223 540L224 543L224 547Z M236 551L231 551L226 550L225 547L226 544L230 547L234 548L236 551Z M266 542L268 545L267 549L264 549L264 546L261 546L262 543L265 543L266 542Z M270 569L273 570L269 570L266 571L265 568L268 567L270 569Z M367 589L363 591L362 586L365 585L368 587L367 589Z M448 704L444 705L441 707L435 707L432 707L427 705L427 702L433 700L450 700L453 702L449 703L448 704Z M717 572L719 575L718 578L722 579L723 582L719 582L716 582L715 578L712 576L712 573L715 574L717 572Z M702 487L702 483L700 480L701 477L704 481L703 484L702 487Z M772 599L773 603L770 605L767 606L762 605L760 602L765 600L769 600L772 599Z M185 628L186 631L183 629L182 625L180 621L185 624L186 627L185 628Z M146 576L143 576L144 573L146 570L144 566L147 569L147 573L146 576Z M107 520L104 518L98 515L94 514L92 511L96 509L98 512L101 513L106 517L107 520Z M609 672L605 670L604 667L607 665L609 668L609 672Z M632 589L632 593L634 590L637 590L637 594L634 594L632 597L630 591L627 595L624 594L624 591L627 589L631 588L632 589Z M496 641L492 645L492 640L491 636L491 633L495 629L495 632L496 635L496 638L496 641Z M626 779L624 776L629 775L633 771L636 773L632 777L628 778L626 779Z M646 727L643 728L640 730L639 733L636 733L632 732L636 729L639 728L643 726L646 727Z" fill="currentColor" opacity="0.55" />

      <!-- Laos -->
      <path d="M218 129L219 131L222 133L224 136L227 138L228 141L229 143L231 142L232 140L232 142L234 142L234 144L234 146L233 148L233 150L233 152L237 158L239 159L244 160L246 161L248 162L251 160L253 159L256 157L259 158L262 160L264 161L266 163L265 165L263 166L265 168L267 168L268 170L269 172L271 171L273 174L271 177L271 179L266 183L260 182L257 182L255 182L256 184L256 186L254 188L253 190L255 191L257 191L264 195L267 198L269 199L274 200L277 201L277 203L276 205L277 207L280 210L282 211L285 213L286 215L287 218L288 220L290 222L292 224L294 225L299 230L301 231L302 234L304 235L304 237L305 241L307 243L308 245L310 244L312 246L314 248L318 251L320 252L322 253L321 255L317 257L317 259L319 261L323 264L325 266L327 268L325 271L323 273L324 275L324 277L324 279L322 282L319 281L318 283L316 285L314 284L312 286L310 287L309 285L307 284L305 283L304 281L303 283L301 284L299 284L297 285L294 286L294 288L296 290L297 292L295 294L292 294L289 292L285 290L282 291L280 290L279 288L278 286L281 285L283 283L284 281L285 276L285 274L285 272L284 268L285 266L287 264L287 262L287 260L284 258L282 257L282 255L281 253L277 252L275 251L275 249L274 247L271 245L270 241L270 236L270 233L271 228L269 225L268 223L265 222L263 221L261 218L259 215L256 210L254 208L251 208L248 207L245 206L242 206L240 207L241 209L239 210L237 212L236 214L233 215L230 217L228 218L227 216L225 215L223 214L220 212L218 211L216 211L215 213L213 214L211 214L211 216L207 218L204 220L202 222L199 224L197 224L195 224L196 219L198 214L199 212L199 210L198 208L197 206L198 204L200 199L202 196L202 193L201 191L200 189L200 186L200 184L195 183L193 184L191 185L189 185L187 184L185 183L184 180L186 178L187 176L187 174L187 172L185 171L184 169L182 168L180 170L179 168L180 164L181 161L183 160L186 160L188 159L187 156L189 154L190 151L193 150L195 149L198 147L199 145L199 148L200 151L202 153L205 152L207 152L209 153L211 152L210 150L210 148L211 146L211 144L211 141L210 139L208 137L207 134L206 132L208 130L209 128L211 127L213 129L215 128L217 129L218 129Z" fill="currentColor" opacity="0.55" />

      <!-- Malaysia -->
      <path d="M179 440L180 436L182 435L183 438L188 440L191 439L192 442L194 444L196 444L198 446L198 448L198 450L196 452L197 454L198 456L200 455L201 453L204 452L207 451L209 453L212 453L214 451L214 449L217 447L217 445L221 445L226 451L231 456L233 457L235 458L237 460L239 463L243 471L244 475L245 480L244 488L242 492L243 494L244 497L244 500L244 502L244 509L246 512L251 516L254 522L259 532L261 537L260 539L258 539L257 537L255 535L255 537L253 538L251 537L249 538L246 540L244 538L242 536L233 531L230 530L226 526L219 522L214 518L211 516L206 513L204 511L202 510L203 507L203 505L202 502L198 498L197 495L193 492L192 490L191 488L191 486L189 483L189 481L189 475L186 467L183 457L184 453L183 449L182 445L180 442L179 440Z M521 484L519 484L515 482L512 481L507 481L504 481L502 481L500 481L498 482L496 481L493 481L491 482L488 481L486 483L484 484L483 486L482 488L482 493L481 495L482 498L481 500L480 503L480 505L480 507L478 507L475 507L473 509L472 511L472 513L473 515L474 517L472 518L470 520L467 522L466 524L466 526L467 528L465 530L464 533L462 536L461 538L459 537L456 537L453 538L451 537L449 538L446 540L444 542L441 540L438 540L434 538L432 538L431 536L421 535L418 536L415 538L415 540L414 542L413 544L410 544L408 546L406 546L404 546L402 546L398 545L394 545L392 546L385 549L382 549L380 548L379 546L375 543L373 542L371 540L369 538L367 536L366 534L365 531L364 529L365 526L367 529L370 531L372 532L375 533L377 533L379 532L386 536L388 536L390 536L394 539L397 539L395 538L393 537L393 535L394 533L396 529L396 527L397 524L396 521L396 519L398 519L400 520L401 517L401 514L402 512L404 511L406 510L414 509L426 506L430 505L432 503L434 501L438 496L440 493L445 488L450 483L451 480L451 478L452 476L454 478L456 480L457 482L459 483L461 486L463 487L465 486L467 483L467 481L467 479L466 477L466 475L466 473L468 472L471 470L471 472L471 474L472 476L473 480L475 481L477 481L476 479L476 475L475 473L474 471L478 470L481 467L482 464L480 463L479 460L481 457L483 458L485 458L488 456L489 454L491 451L492 449L493 446L500 439L501 437L505 430L507 430L507 433L506 435L506 437L508 436L510 433L511 431L514 430L515 433L516 436L520 438L522 439L523 442L522 445L523 447L522 449L520 451L526 450L529 448L531 449L532 451L528 453L529 455L532 454L534 452L536 453L538 453L540 454L541 457L543 457L548 460L550 460L552 460L554 461L554 464L552 466L547 468L543 469L540 469L537 468L534 469L533 472L536 475L540 478L541 480L539 481L537 481L534 482L532 482L530 483L527 483L524 481L522 484L521 484Z M182 463L180 463L180 460L183 460L182 463Z M174 440L175 442L173 443L171 444L171 442L171 440L173 440L174 440Z M513 426L511 427L511 424L513 423L515 422L515 424L515 426L513 426Z M400 519L398 518L398 512L400 513L400 516L400 518L400 519Z M527 484L524 485L522 485L523 483L525 483L527 484Z" fill="currentColor" opacity="0.55" />

      <!-- Philippines -->
      <path d="M590 203L593 204L600 207L602 208L605 209L607 209L609 208L611 205L613 206L614 208L614 210L612 212L611 219L611 221L611 223L612 226L615 227L616 229L616 231L618 232L617 234L616 238L612 245L612 247L611 250L607 251L604 252L602 253L600 255L599 257L600 259L600 261L598 263L597 265L596 267L597 269L599 273L601 277L600 279L601 281L601 283L603 288L604 290L606 292L609 294L611 294L613 293L612 291L612 289L615 288L617 286L620 286L623 287L625 288L628 291L629 293L629 295L629 297L632 298L633 296L633 294L633 292L635 292L640 295L642 295L644 297L639 298L638 300L639 302L641 304L643 307L643 310L645 310L648 312L650 311L650 316L648 321L646 320L645 318L645 316L646 314L644 314L642 314L640 314L635 312L633 310L633 308L631 305L625 301L623 298L619 294L617 294L618 296L618 298L620 301L621 304L621 307L618 307L618 305L616 303L612 300L609 297L603 294L601 294L598 296L597 298L595 300L592 300L590 299L588 297L585 295L583 295L581 296L581 293L581 289L582 287L587 283L587 280L584 278L582 278L580 275L579 278L580 281L580 283L578 284L576 283L576 281L574 279L574 277L571 277L570 274L569 271L569 269L568 267L567 265L566 257L566 255L564 253L564 249L565 247L567 249L569 250L571 252L574 253L576 252L576 249L575 246L575 243L575 241L575 239L577 235L577 232L577 229L577 227L576 224L576 222L579 211L579 209L580 207L580 205L583 204L585 203L587 203L589 203L590 203Z M516 401L514 403L514 401L515 399L517 396L520 392L524 388L527 386L529 385L532 383L536 378L540 375L544 370L546 369L549 364L551 363L553 362L555 360L555 357L554 354L555 352L558 345L560 345L559 348L560 350L559 352L561 357L562 360L561 363L557 364L555 366L554 368L553 370L548 371L546 372L544 373L545 375L541 382L539 384L536 386L534 387L532 388L531 391L529 393L527 394L525 396L523 397L521 397L520 399L518 400L516 401Z M618 339L620 340L622 339L624 340L626 341L625 343L629 341L631 341L630 343L630 346L628 349L626 350L624 351L623 354L621 355L618 357L612 359L610 359L609 361L607 362L607 358L607 356L607 354L608 352L609 349L609 345L610 339L609 337L607 336L607 334L610 335L614 336L616 338L618 339Z M630 389L627 389L625 384L623 383L621 382L619 381L616 377L616 374L617 371L621 371L625 369L625 365L625 363L624 361L626 359L627 357L627 354L632 351L637 353L638 355L638 358L635 362L634 364L633 368L633 370L631 372L631 376L630 378L633 383L634 385L632 388L630 389Z M658 345L660 345L663 343L665 344L667 346L668 349L667 352L667 355L668 357L670 358L671 362L672 364L672 366L670 365L669 367L668 364L666 364L667 367L667 370L665 369L663 368L663 365L662 362L663 357L662 355L660 352L657 353L655 348L654 344L653 342L656 342L658 343L658 345Z M671 321L673 323L673 325L675 326L677 328L677 331L676 333L676 336L676 338L676 340L678 344L678 346L680 348L681 350L679 349L675 349L673 348L671 348L670 346L668 346L666 342L665 340L667 338L667 336L665 336L663 335L662 333L660 331L658 331L656 329L655 327L653 324L653 321L658 321L664 321L670 321L671 321Z M582 303L587 302L589 304L591 305L594 305L595 307L597 309L599 310L598 312L598 314L599 319L597 322L596 324L596 326L594 326L591 327L590 325L588 323L587 320L585 318L584 316L584 313L582 310L580 308L578 306L577 304L575 304L576 302L578 302L581 302L582 303Z M686 384L688 385L690 385L690 388L692 391L693 393L691 395L689 398L692 399L694 403L695 406L695 411L695 413L697 415L698 419L698 423L697 426L695 429L692 432L690 431L691 434L691 439L690 443L689 441L688 439L688 434L687 432L686 430L684 427L683 423L680 424L680 426L677 429L676 431L675 433L674 435L675 437L678 439L680 444L680 449L679 451L676 455L673 457L671 454L672 450L672 448L670 448L668 451L666 451L660 449L655 446L651 444L649 441L648 438L648 436L647 432L647 429L648 427L650 425L651 423L651 421L648 418L646 416L642 415L641 413L639 413L637 414L637 416L635 421L633 420L631 419L630 417L628 417L627 419L624 419L623 415L620 414L618 416L617 418L614 423L613 426L611 429L610 431L608 431L606 428L606 425L608 424L609 422L610 416L610 414L613 411L614 409L619 408L621 407L624 407L626 407L627 405L627 403L628 401L630 400L633 399L635 398L636 396L638 397L641 398L643 399L644 401L645 406L642 409L646 407L650 406L651 404L653 402L653 400L655 398L659 400L661 399L662 396L662 393L664 391L666 391L668 392L670 392L671 390L674 390L676 390L677 387L677 385L675 377L676 375L679 377L684 380L685 382L686 384Z M635 381L634 379L635 373L635 371L638 368L639 365L641 361L644 356L646 352L646 350L646 348L648 346L648 349L648 351L648 353L648 356L648 359L647 363L646 365L643 366L641 368L640 370L640 372L637 379L635 381Z M591 447L592 449L594 448L596 449L594 451L590 451L587 451L586 449L589 447L591 447Z M571 328L573 327L574 329L575 331L573 332L571 332L569 332L568 330L567 328L566 326L568 326L570 328L571 328Z M621 362L618 362L618 359L620 357L622 356L622 358L621 361L621 362Z M659 375L657 376L655 377L649 379L646 378L644 375L644 373L648 371L650 368L654 368L657 369L658 373L659 375Z M574 463L572 465L569 465L568 467L566 467L568 464L570 463L572 462L574 463Z M610 440L608 441L606 439L604 437L606 436L609 434L613 436L612 439L610 440Z M680 372L678 371L677 369L677 367L677 365L679 363L679 366L680 369L680 371L680 372Z M606 302L608 302L610 303L610 305L609 307L605 307L604 304L605 301L606 302Z M610 325L608 330L607 328L607 326L607 324L608 320L610 319L610 321L610 325Z M642 326L645 328L648 332L648 335L648 337L647 335L644 333L642 333L641 331L639 330L638 328L636 328L633 331L631 333L632 330L632 325L632 322L632 320L634 321L636 322L638 323L642 326Z M654 300L652 301L650 302L648 300L649 297L649 293L651 292L653 294L655 295L655 298L654 300Z M608 273L607 275L608 278L608 280L606 280L607 278L606 276L604 274L605 272L607 272L608 273Z" fill="currentColor" opacity="0.55" />

      <!-- Timor-Leste -->
      <path d="M668 751L667 749L666 747L666 745L669 745L670 742L666 743L665 740L667 739L669 736L673 733L682 732L684 731L690 731L697 731L701 730L703 729L705 728L707 729L710 729L712 730L708 733L704 736L702 737L699 737L697 738L696 740L694 741L691 741L688 742L685 744L683 744L681 745L675 747L671 749L668 751Z M648 748L651 746L656 745L655 748L653 750L650 750L648 749L648 748Z" fill="currentColor" opacity="0.55" />

      <!-- Singapore -->
      <path d="M254 540L251 541L248 540L249 538L251 538L253 538L254 539L255 539L254 540Z" fill="currentColor" opacity="0.55" />

      <!-- Vietnam -->
      <path d="M256 363L256 366L256 369L254 366L252 364L255 362L256 363Z M333 146L330 146L328 148L326 149L324 150L322 151L321 154L317 157L315 156L313 157L310 157L308 156L309 160L305 165L305 168L304 170L302 172L297 176L295 176L290 184L290 186L290 188L289 193L287 194L287 196L289 199L290 202L292 205L295 208L297 210L299 210L302 214L304 216L304 220L301 219L304 221L309 227L312 230L316 233L317 236L321 238L324 241L325 243L328 244L330 246L331 248L333 247L335 249L337 250L337 252L339 252L339 254L341 256L342 258L345 262L347 264L349 266L351 270L352 273L353 277L355 279L355 282L356 285L357 287L357 290L358 292L359 295L359 297L358 301L359 303L358 307L360 312L361 318L362 320L360 319L360 317L358 318L359 324L357 324L357 330L358 332L358 334L357 332L356 335L357 337L356 340L354 340L353 342L353 345L349 345L347 347L344 348L342 350L339 353L337 353L335 353L333 357L330 357L325 360L323 361L321 362L319 363L315 361L314 358L313 362L310 362L308 360L306 362L308 362L309 364L307 365L304 365L306 366L308 367L310 368L308 370L307 372L305 373L303 372L297 366L298 368L304 374L305 376L305 378L302 379L298 377L293 371L291 371L296 377L297 379L298 382L284 388L282 391L281 394L278 396L272 398L270 398L272 395L271 387L271 378L273 374L276 373L276 371L275 369L272 368L270 367L268 367L265 364L263 363L265 362L268 361L271 361L273 359L275 357L275 355L275 353L278 353L280 354L282 352L286 352L288 351L290 353L292 354L294 354L296 355L297 353L297 351L292 346L291 344L291 342L291 340L293 338L294 336L296 337L299 337L301 338L302 333L304 332L306 332L308 332L312 330L315 328L317 326L319 325L321 327L324 325L324 323L325 321L324 318L324 315L323 313L324 308L326 304L325 302L324 299L323 296L321 293L320 291L321 287L321 285L323 284L323 282L324 280L324 277L324 275L323 273L325 272L326 269L326 267L323 264L320 262L318 260L317 258L321 255L322 253L320 252L318 251L315 248L312 247L311 244L309 245L307 244L306 242L305 238L304 235L302 234L301 231L299 230L294 226L292 224L290 222L288 220L287 218L286 216L285 213L283 212L281 211L278 208L276 206L277 203L277 201L274 200L269 199L267 198L265 196L257 191L255 191L253 190L253 188L255 187L256 184L255 182L257 182L260 182L266 183L270 180L271 177L273 175L272 172L269 172L268 170L267 168L265 168L263 167L264 165L266 164L265 162L262 160L259 158L257 157L253 159L251 160L249 162L246 161L244 160L239 159L237 158L233 152L233 150L233 148L234 146L234 144L234 142L232 142L232 140L231 142L229 143L228 141L228 139L225 137L222 133L219 131L218 129L220 127L222 126L223 124L224 122L226 122L230 124L232 125L234 127L237 127L238 125L240 123L242 122L245 125L246 122L248 122L253 126L255 125L256 122L258 121L260 122L262 123L265 121L267 121L269 120L271 117L271 115L273 114L278 112L280 110L283 112L284 114L285 116L288 116L290 118L292 119L294 118L297 118L299 120L301 120L303 119L305 119L309 121L309 123L307 125L305 127L305 129L307 131L307 134L307 136L310 137L312 138L314 139L315 141L317 142L319 142L321 144L323 144L326 144L329 143L332 145L333 146Z M326 152L323 154L323 152L325 152L326 152Z M314 161L312 160L315 159L315 161L314 161Z" fill="currentColor" opacity="0.55" />

      <!-- Thailand -->
      <path d="M224 332L222 332L221 329L223 330L224 332Z M145 412L143 414L142 411L143 407L146 408L145 410L145 412Z M179 169L179 171L181 169L183 168L185 171L187 172L187 174L187 176L186 178L184 180L185 183L187 184L189 185L191 185L193 184L195 183L199 184L200 186L200 189L201 191L202 193L202 196L200 199L199 203L197 205L197 207L199 209L199 212L198 214L196 219L194 223L197 224L199 224L202 222L204 220L207 218L210 217L211 214L213 214L215 213L216 211L218 211L220 212L223 214L225 215L227 215L227 217L229 218L232 216L235 215L237 212L238 210L240 209L240 207L242 206L245 206L248 207L251 208L253 209L256 210L259 215L261 218L263 221L265 222L268 223L269 225L271 228L270 233L270 236L270 241L271 245L274 247L275 249L275 251L277 252L281 253L282 255L282 257L284 258L286 259L287 262L287 264L285 266L284 268L284 271L285 274L285 276L284 280L284 282L281 285L279 286L277 287L275 288L274 286L272 285L270 284L266 285L263 285L259 285L256 286L253 286L251 286L247 284L244 285L241 286L239 286L236 288L234 290L233 292L230 296L228 298L226 299L226 301L224 301L222 301L222 307L224 311L225 316L225 319L228 321L230 323L230 327L230 330L234 337L231 334L231 331L228 329L226 330L224 328L222 327L221 324L218 323L216 321L214 320L212 319L210 318L205 320L198 319L195 320L193 318L194 316L194 312L195 309L195 306L195 304L189 302L187 302L181 303L179 304L177 305L176 307L177 309L178 311L176 317L177 325L176 328L175 331L173 333L173 337L171 338L169 342L168 347L167 349L166 353L162 360L162 363L160 364L161 366L160 372L160 376L161 378L162 382L162 385L165 386L171 384L173 385L175 388L176 397L178 400L180 401L182 405L185 421L186 423L187 425L185 424L185 420L183 418L183 415L181 414L180 418L180 420L184 424L185 426L188 426L190 428L192 429L196 432L199 432L202 431L204 431L206 432L208 434L212 440L218 444L217 447L214 449L214 451L212 453L210 453L208 451L204 452L201 453L200 455L198 456L197 454L196 452L198 450L198 448L198 446L197 444L194 444L192 442L192 440L189 440L183 438L182 435L180 436L179 439L174 434L171 432L171 427L169 426L169 422L167 423L165 423L163 418L160 415L158 415L158 412L156 410L154 409L151 405L149 403L147 404L145 406L143 405L142 401L142 399L142 395L144 391L145 385L146 381L147 379L148 374L151 367L152 364L152 362L152 360L152 358L155 355L157 353L161 349L164 344L166 340L168 338L169 336L167 330L166 328L165 326L165 324L165 322L164 320L161 317L160 315L160 313L159 310L160 308L160 303L160 301L160 298L159 296L157 294L156 292L151 288L148 286L147 283L145 281L144 279L142 277L141 274L141 270L142 268L144 268L146 266L148 266L148 262L148 258L149 255L149 253L153 250L155 248L154 246L151 248L149 244L148 241L147 239L146 236L142 231L141 229L138 227L136 224L133 221L132 219L132 216L132 214L130 211L130 209L128 209L126 208L125 205L127 205L129 204L131 204L132 196L133 193L133 190L134 186L136 184L137 182L138 180L142 182L145 182L147 181L152 180L154 180L156 179L157 175L159 173L161 173L163 174L165 174L167 172L166 169L169 169L171 169L173 168L176 167L179 169Z M178 379L178 381L176 382L175 379L177 379L178 379Z" fill="currentColor" opacity="0.55" />

      <!-- Brunei -->
      <path d="M473 470L474 471L475 473L476 475L476 479L477 480L477 481L476 481L475 481L474 481L473 480L472 476L471 474L471 472L471 470L473 470Z M471 470L469 471L468 472L466 473L466 474L466 475L466 477L466 479L467 479L467 480L467 481L466 482L467 483L466 485L465 486L464 487L463 487L462 487L461 486L460 484L459 483L457 483L457 482L457 481L456 480L455 478L454 478L453 477L452 476L454 476L457 476L459 475L462 474L464 472L466 471L467 469L470 468L472 468L472 469L471 470Z" fill="currentColor" opacity="0.55" />

      <!-- China (context) -->
      <path d="M333 146L323 144L315 141L308 137L305 129L309 121L301 120L293 118L285 116L278 112L271 117L262 123L254 126L247 121L239 124L230 124L222 126L213 129L207 136L211 144L212 152L202 153L199 145L190 146L181 147L175 141L168 135L160 134L164 125L167 117L158 115L154 108L150 99L141 95L132 99L131 91L129 82L133 75L140 67L148 62L150 53L152 45L150 35L149 27L140 20L136 13L129 9L123 15L114 12L106 12L109 3L101 2L105 0L96 0L89 0L81 0L73 0L65 0L58 3L46 7L40 13L33 17L26 23L18 25L10 20L2 20L0 18L0 14L0 15L0 20L0 27L0 31L0 22L0 19L0 22L0 23L0 23L0 19L0 20L0 20L0 14L0 8L0 7L0 3L0 0L0 0L0 0L0 0L0 0L0 0L0 0L0 0L0 0L0 0L0 0L0 0L0 0L0 0L0 0L0 0L0 0L0 0L0 0L0 0L0 0L0 0L0 0L0 0L0 0L0 0L0 0L0 0L0 0L0 0L0 0L0 0L0 0L0 0L0 0L0 0L0 0L0 0L0 0L0 0L0 0L0 0L0 0L0 0L0 0L0 0L0 0L0 0L0 0L0 0L0 0L0 0L0 0L0 0L0 0L0 0L0 0L0 0L0 0L0 0L0 0L0 0L0 0L0 0L0 0L0 0L0 0L0 0L0 0L0 0L0 0L0 0L0 0L0 0L0 0L0 0L0 0L0 0L0 0L0 0L0 0L0 0L0 0L0 0L0 0L0 0L0 0L0 0L0 0L0 0L0 0L0 0L0 0L0 0L0 0L0 0L0 0L0 0L0 0L0 0L6 0L14 0L23 0L31 0L45 0L54 0L63 0L73 0L85 0L90 0L95 0L101 0L110 0L122 0L132 0L142 0L151 0L166 0L176 0L187 0L198 0L206 0L213 0L227 0L237 0L249 0L261 0L270 0L278 0L286 0L300 0L308 0L316 0L328 0L337 0L347 0L356 0L365 0L374 0L382 0L389 0L396 0L405 0L409 0L402 0L402 0L407 0L417 0L426 0L435 0L443 0L452 0L459 0L469 0L479 0L489 0L495 0L501 0L509 0L517 0L526 0L535 0L544 0L552 0L561 0L564 0L556 0L549 0L541 0L532 0L523 0L515 0L508 0L500 0L492 0L483 0L486 0L489 0L493 0L498 0L504 0L515 0L523 0L533 0L544 0L552 0L552 0L559 0L564 0L570 0L579 0L583 0L579 0L570 0L577 0L588 0L596 0L610 0L618 0L627 0L636 0L647 0L656 0L664 0L675 0L682 0L689 0L694 0L699 0L702 0L706 0L713 0L717 0L717 0L726 0L736 0L744 0L752 0L761 0L769 0L777 0L780 0L781 0L791 0L800 0L811 0L818 0L826 0L835 0L847 0L856 0L856 0L853 0L846 0L844 0L841 0L837 0L832 0L826 0L818 0L807 0L799 0L790 0L786 0L789 0L788 0L788 0L784 0L776 0L768 0L760 0L756 0L748 0L740 0L732 0L731 0L719 0L711 0L704 0L697 0L691 0L684 0L675 0L667 0L656 0L649 0L640 0L632 0L624 0L614 0L607 0L598 0L590 0L602 0L595 0L598 0L605 0L612 0L605 0L592 0L585 0L578 0L566 0L557 0L553 0L546 0L535 0L527 0L522 0L523 0L530 0L540 0L548 0L548 0L555 0L564 0L572 0L583 0L593 0L601 0L609 0L618 0L618 0L609 0L601 0L591 0L584 0L576 0L569 0L561 0L556 0L557 0L564 0L573 0L577 0L581 0L586 0L588 0L596 0L603 0L595 0L584 0L572 0L583 0L592 0L601 0L605 0L596 0L588 0L577 0L586 0L595 0L602 0L601 0L606 0L598 0L601 5L600 14L592 13L586 19L582 26L578 34L571 41L563 44L566 52L558 57L560 67L552 70L548 78L542 85L533 85L526 89L526 97L519 101L511 106L504 110L500 117L491 119L483 120L474 121L466 124L458 125L450 126L444 120L442 129L434 135L426 138L418 142L410 141L400 146L392 146L385 151L376 155L379 163L375 170L368 163L367 155L371 147L364 143L357 147L348 144L340 142L333 146Z M390 176L390 184L384 191L382 199L373 205L366 210L357 208L347 204L346 190L354 183L361 178L371 176L379 175L387 174L390 176Z" fill="currentColor" opacity="0.08" />

      <!-- Papua New Guinea (context) -->
      <path d="M1000 650L1000 650L1000 658L1000 663L1000 672L1000 674L1000 680L1000 683L1000 687L1000 689L1000 685L1000 685L1000 680L1000 676L1000 673L1000 674L1000 673L1000 666L1000 674L1000 674L1000 670L1000 663L1000 659L1000 651L1000 650Z M980 744L980 736L980 728L980 720L980 712L980 704L978 695L980 684L980 676L980 668L980 660L980 652L980 644L980 636L980 628L980 618L994 621L1000 626L1000 631L1000 632L1000 636L1000 640L1000 641L1000 648L1000 660L1000 671L1000 674L1000 681L1000 683L1000 689L1000 697L1000 697L1000 699L1000 710L1000 716L1000 721L1000 729L1000 736L1000 743L1000 742L1000 751L1000 753L1000 761L1000 764L1000 766L1000 773L1000 772L1000 768L1000 766L1000 765L1000 763L1000 759L1000 750L1000 743L1000 737L1000 729L1000 722L1000 719L1000 715L1000 714L1000 716L1000 711L1000 721L1000 722L1000 728L1000 728L1000 726L1000 729L1000 733L1000 741L1000 745L1000 746L1000 745L991 745L983 746L980 744Z" fill="currentColor" opacity="0.08" />

      <!-- Taiwan (context) -->
      <path d="M588 124L587 127L586 129L586 131L586 134L586 136L585 138L583 137L582 133L581 131L578 128L576 127L574 124L572 118L571 116L570 114L571 111L571 109L571 107L571 104L581 88L583 85L585 83L588 79L589 77L595 75L597 73L600 73L602 75L605 76L606 79L604 81L604 83L604 85L604 87L603 92L601 95L600 97L600 100L599 104L598 109L596 114L595 116L594 118L591 121L588 124Z" fill="currentColor" opacity="0.08" />

    </svg>
